<mxfile host="app.diagrams.net" modified="2023-04-11T07:17:24.970Z" agent="Mozilla/5.0 (Windows NT 10.0; Win64; x64) AppleWebKit/537.36 (KHTML, like Gecko) Chrome/111.0.0.0 Safari/537.36" etag="sRemKSRCTg6vwqdLLMqe" version="21.1.5" type="device">
  <diagram name="Sayfa -1" id="_XDM3-Csm9u_s2XKqnAF">
    <mxGraphModel dx="1050" dy="1710" grid="1" gridSize="10" guides="1" tooltips="1" connect="1" arrows="1" fold="1" page="1" pageScale="1" pageWidth="827" pageHeight="1169" math="0" shadow="0">
      <root>
        <mxCell id="0" />
        <mxCell id="1" parent="0" />
        <mxCell id="tSz3dCy00aF6PcJnhEde-1" value="Akademisyen" style="swimlane;fontStyle=1;childLayout=stackLayout;horizontal=1;startSize=30;horizontalStack=0;resizeParent=1;resizeParentMax=0;resizeLast=0;collapsible=1;marginBottom=0;whiteSpace=wrap;html=1;fillColor=#FAE5C7;strokeColor=#0F8B8D;rounded=0;labelBackgroundColor=none;fontColor=#143642;strokeWidth=3;" parent="1" vertex="1">
          <mxGeometry x="80" y="120" width="160" height="390" as="geometry" />
        </mxCell>
        <mxCell id="tSz3dCy00aF6PcJnhEde-33" value="personel_no" style="text;strokeColor=none;fillColor=none;align=left;verticalAlign=middle;spacingLeft=4;spacingRight=4;overflow=hidden;points=[[0,0.5],[1,0.5]];portConstraint=eastwest;rotatable=0;whiteSpace=wrap;html=1;fontStyle=1;rounded=0;labelBackgroundColor=none;fontColor=#143642;strokeWidth=3;" parent="tSz3dCy00aF6PcJnhEde-1" vertex="1">
          <mxGeometry y="30" width="160" height="30" as="geometry" />
        </mxCell>
        <mxCell id="tSz3dCy00aF6PcJnhEde-2" value="tckn" style="text;strokeColor=none;fillColor=none;align=left;verticalAlign=middle;spacingLeft=4;spacingRight=4;overflow=hidden;points=[[0,0.5],[1,0.5]];portConstraint=eastwest;rotatable=0;whiteSpace=wrap;html=1;fontStyle=1;rounded=0;labelBackgroundColor=none;fontColor=#143642;strokeWidth=3;" parent="tSz3dCy00aF6PcJnhEde-1" vertex="1">
          <mxGeometry y="60" width="160" height="30" as="geometry" />
        </mxCell>
        <mxCell id="tSz3dCy00aF6PcJnhEde-3" value="ad" style="text;strokeColor=none;fillColor=none;align=left;verticalAlign=middle;spacingLeft=4;spacingRight=4;overflow=hidden;points=[[0,0.5],[1,0.5]];portConstraint=eastwest;rotatable=0;whiteSpace=wrap;html=1;fontStyle=1;rounded=0;labelBackgroundColor=none;fontColor=#143642;strokeWidth=3;" parent="tSz3dCy00aF6PcJnhEde-1" vertex="1">
          <mxGeometry y="90" width="160" height="30" as="geometry" />
        </mxCell>
        <mxCell id="tSz3dCy00aF6PcJnhEde-4" value="soyad" style="text;strokeColor=none;fillColor=none;align=left;verticalAlign=middle;spacingLeft=4;spacingRight=4;overflow=hidden;points=[[0,0.5],[1,0.5]];portConstraint=eastwest;rotatable=0;whiteSpace=wrap;html=1;fontStyle=1;rounded=0;labelBackgroundColor=none;fontColor=#143642;strokeWidth=3;" parent="tSz3dCy00aF6PcJnhEde-1" vertex="1">
          <mxGeometry y="120" width="160" height="30" as="geometry" />
        </mxCell>
        <mxCell id="tSz3dCy00aF6PcJnhEde-29" value="unvan" style="text;strokeColor=none;fillColor=none;align=left;verticalAlign=middle;spacingLeft=4;spacingRight=4;overflow=hidden;points=[[0,0.5],[1,0.5]];portConstraint=eastwest;rotatable=0;whiteSpace=wrap;html=1;fontStyle=1;rounded=0;labelBackgroundColor=none;fontColor=#143642;strokeWidth=3;" parent="tSz3dCy00aF6PcJnhEde-1" vertex="1">
          <mxGeometry y="150" width="160" height="30" as="geometry" />
        </mxCell>
        <mxCell id="tSz3dCy00aF6PcJnhEde-30" value="dogum_tarihi" style="text;strokeColor=none;fillColor=none;align=left;verticalAlign=middle;spacingLeft=4;spacingRight=4;overflow=hidden;points=[[0,0.5],[1,0.5]];portConstraint=eastwest;rotatable=0;whiteSpace=wrap;html=1;fontStyle=1;rounded=0;labelBackgroundColor=none;fontColor=#143642;strokeWidth=3;" parent="tSz3dCy00aF6PcJnhEde-1" vertex="1">
          <mxGeometry y="180" width="160" height="30" as="geometry" />
        </mxCell>
        <mxCell id="tSz3dCy00aF6PcJnhEde-41" value="dogum_yeri" style="text;strokeColor=none;fillColor=none;align=left;verticalAlign=middle;spacingLeft=4;spacingRight=4;overflow=hidden;points=[[0,0.5],[1,0.5]];portConstraint=eastwest;rotatable=0;whiteSpace=wrap;html=1;fontStyle=1;rounded=0;labelBackgroundColor=none;fontColor=#143642;strokeWidth=3;" parent="tSz3dCy00aF6PcJnhEde-1" vertex="1">
          <mxGeometry y="210" width="160" height="30" as="geometry" />
        </mxCell>
        <mxCell id="tSz3dCy00aF6PcJnhEde-49" value="cinsiyet" style="text;strokeColor=none;fillColor=none;align=left;verticalAlign=middle;spacingLeft=4;spacingRight=4;overflow=hidden;points=[[0,0.5],[1,0.5]];portConstraint=eastwest;rotatable=0;whiteSpace=wrap;html=1;fontStyle=1;rounded=0;labelBackgroundColor=none;fontColor=#143642;strokeWidth=3;" parent="tSz3dCy00aF6PcJnhEde-1" vertex="1">
          <mxGeometry y="240" width="160" height="30" as="geometry" />
        </mxCell>
        <mxCell id="tSz3dCy00aF6PcJnhEde-31" value="parola" style="text;strokeColor=none;fillColor=none;align=left;verticalAlign=middle;spacingLeft=4;spacingRight=4;overflow=hidden;points=[[0,0.5],[1,0.5]];portConstraint=eastwest;rotatable=0;whiteSpace=wrap;html=1;fontStyle=1;rounded=0;labelBackgroundColor=none;fontColor=#143642;strokeWidth=3;" parent="tSz3dCy00aF6PcJnhEde-1" vertex="1">
          <mxGeometry y="270" width="160" height="30" as="geometry" />
        </mxCell>
        <mxCell id="AcIwFCtZqvH4_6iUX5yy-1" value="proje_sayisi" style="text;strokeColor=none;fillColor=none;align=left;verticalAlign=middle;spacingLeft=4;spacingRight=4;overflow=hidden;points=[[0,0.5],[1,0.5]];portConstraint=eastwest;rotatable=0;whiteSpace=wrap;html=1;fontStyle=1;rounded=0;labelBackgroundColor=none;fontColor=#143642;strokeWidth=3;" parent="tSz3dCy00aF6PcJnhEde-1" vertex="1">
          <mxGeometry y="300" width="160" height="30" as="geometry" />
        </mxCell>
        <mxCell id="AcIwFCtZqvH4_6iUX5yy-3" value="odul_sayisi" style="text;strokeColor=none;fillColor=none;align=left;verticalAlign=middle;spacingLeft=4;spacingRight=4;overflow=hidden;points=[[0,0.5],[1,0.5]];portConstraint=eastwest;rotatable=0;whiteSpace=wrap;html=1;fontStyle=1;rounded=0;labelBackgroundColor=none;fontColor=#143642;strokeWidth=3;" parent="tSz3dCy00aF6PcJnhEde-1" vertex="1">
          <mxGeometry y="330" width="160" height="30" as="geometry" />
        </mxCell>
        <mxCell id="AcIwFCtZqvH4_6iUX5yy-4" value="alinti_sayisi" style="text;strokeColor=none;fillColor=none;align=left;verticalAlign=middle;spacingLeft=4;spacingRight=4;overflow=hidden;points=[[0,0.5],[1,0.5]];portConstraint=eastwest;rotatable=0;whiteSpace=wrap;html=1;fontStyle=1;rounded=0;labelBackgroundColor=none;fontColor=#143642;strokeWidth=3;" parent="tSz3dCy00aF6PcJnhEde-1" vertex="1">
          <mxGeometry y="360" width="160" height="30" as="geometry" />
        </mxCell>
        <mxCell id="tSz3dCy00aF6PcJnhEde-5" value="Ogrenci" style="swimlane;fontStyle=1;childLayout=stackLayout;horizontal=1;startSize=30;horizontalStack=0;resizeParent=1;resizeParentMax=0;resizeLast=0;collapsible=1;marginBottom=0;whiteSpace=wrap;html=1;fillColor=#FAE5C7;strokeColor=#0F8B8D;rounded=0;labelBackgroundColor=none;fontColor=#143642;strokeWidth=3;" parent="1" vertex="1">
          <mxGeometry x="320" y="90" width="160" height="330" as="geometry" />
        </mxCell>
        <mxCell id="tSz3dCy00aF6PcJnhEde-32" value="ogrenci_no" style="text;strokeColor=none;fillColor=none;align=left;verticalAlign=middle;spacingLeft=4;spacingRight=4;overflow=hidden;points=[[0,0.5],[1,0.5]];portConstraint=eastwest;rotatable=0;whiteSpace=wrap;html=1;fontStyle=1;rounded=0;labelBackgroundColor=none;fontColor=#143642;strokeWidth=3;" parent="tSz3dCy00aF6PcJnhEde-5" vertex="1">
          <mxGeometry y="30" width="160" height="30" as="geometry" />
        </mxCell>
        <mxCell id="tSz3dCy00aF6PcJnhEde-6" value="tckn" style="text;strokeColor=none;fillColor=none;align=left;verticalAlign=middle;spacingLeft=4;spacingRight=4;overflow=hidden;points=[[0,0.5],[1,0.5]];portConstraint=eastwest;rotatable=0;whiteSpace=wrap;html=1;fontStyle=1;rounded=0;labelBackgroundColor=none;fontColor=#143642;strokeWidth=3;" parent="tSz3dCy00aF6PcJnhEde-5" vertex="1">
          <mxGeometry y="60" width="160" height="30" as="geometry" />
        </mxCell>
        <mxCell id="tSz3dCy00aF6PcJnhEde-7" value="ad" style="text;strokeColor=none;fillColor=none;align=left;verticalAlign=middle;spacingLeft=4;spacingRight=4;overflow=hidden;points=[[0,0.5],[1,0.5]];portConstraint=eastwest;rotatable=0;whiteSpace=wrap;html=1;fontStyle=1;rounded=0;labelBackgroundColor=none;fontColor=#143642;strokeWidth=3;" parent="tSz3dCy00aF6PcJnhEde-5" vertex="1">
          <mxGeometry y="90" width="160" height="30" as="geometry" />
        </mxCell>
        <mxCell id="tSz3dCy00aF6PcJnhEde-8" value="soyad" style="text;strokeColor=none;fillColor=none;align=left;verticalAlign=middle;spacingLeft=4;spacingRight=4;overflow=hidden;points=[[0,0.5],[1,0.5]];portConstraint=eastwest;rotatable=0;whiteSpace=wrap;html=1;fontStyle=1;rounded=0;labelBackgroundColor=none;fontColor=#143642;strokeWidth=3;" parent="tSz3dCy00aF6PcJnhEde-5" vertex="1">
          <mxGeometry y="120" width="160" height="30" as="geometry" />
        </mxCell>
        <mxCell id="tSz3dCy00aF6PcJnhEde-24" value="dogum_tarihi" style="text;strokeColor=none;fillColor=none;align=left;verticalAlign=middle;spacingLeft=4;spacingRight=4;overflow=hidden;points=[[0,0.5],[1,0.5]];portConstraint=eastwest;rotatable=0;whiteSpace=wrap;html=1;fontStyle=1;rounded=0;labelBackgroundColor=none;fontColor=#143642;strokeWidth=3;" parent="tSz3dCy00aF6PcJnhEde-5" vertex="1">
          <mxGeometry y="150" width="160" height="30" as="geometry" />
        </mxCell>
        <mxCell id="tSz3dCy00aF6PcJnhEde-40" value="dogum_yeri" style="text;strokeColor=none;fillColor=none;align=left;verticalAlign=middle;spacingLeft=4;spacingRight=4;overflow=hidden;points=[[0,0.5],[1,0.5]];portConstraint=eastwest;rotatable=0;whiteSpace=wrap;html=1;fontStyle=1;rounded=0;labelBackgroundColor=none;fontColor=#143642;strokeWidth=3;" parent="tSz3dCy00aF6PcJnhEde-5" vertex="1">
          <mxGeometry y="180" width="160" height="30" as="geometry" />
        </mxCell>
        <mxCell id="tSz3dCy00aF6PcJnhEde-27" value="cinsiyet" style="text;strokeColor=none;fillColor=none;align=left;verticalAlign=middle;spacingLeft=4;spacingRight=4;overflow=hidden;points=[[0,0.5],[1,0.5]];portConstraint=eastwest;rotatable=0;whiteSpace=wrap;html=1;fontStyle=1;rounded=0;labelBackgroundColor=none;fontColor=#143642;strokeWidth=3;" parent="tSz3dCy00aF6PcJnhEde-5" vertex="1">
          <mxGeometry y="210" width="160" height="30" as="geometry" />
        </mxCell>
        <mxCell id="tSz3dCy00aF6PcJnhEde-28" value="sinifi" style="text;strokeColor=none;fillColor=none;align=left;verticalAlign=middle;spacingLeft=4;spacingRight=4;overflow=hidden;points=[[0,0.5],[1,0.5]];portConstraint=eastwest;rotatable=0;whiteSpace=wrap;html=1;fontStyle=1;rounded=0;labelBackgroundColor=none;fontColor=#143642;strokeWidth=3;" parent="tSz3dCy00aF6PcJnhEde-5" vertex="1">
          <mxGeometry y="240" width="160" height="30" as="geometry" />
        </mxCell>
        <mxCell id="VWJ288TvoI_qNRsVCnb8-2" value="parola" style="text;strokeColor=none;fillColor=none;align=left;verticalAlign=middle;spacingLeft=4;spacingRight=4;overflow=hidden;points=[[0,0.5],[1,0.5]];portConstraint=eastwest;rotatable=0;whiteSpace=wrap;html=1;fontStyle=1;rounded=0;labelBackgroundColor=none;fontColor=#143642;strokeWidth=3;" parent="tSz3dCy00aF6PcJnhEde-5" vertex="1">
          <mxGeometry y="270" width="160" height="30" as="geometry" />
        </mxCell>
        <mxCell id="tSz3dCy00aF6PcJnhEde-48" value="rfid_kodu" style="text;strokeColor=none;fillColor=none;align=left;verticalAlign=middle;spacingLeft=4;spacingRight=4;overflow=hidden;points=[[0,0.5],[1,0.5]];portConstraint=eastwest;rotatable=0;whiteSpace=wrap;html=1;fontStyle=1;rounded=0;labelBackgroundColor=none;fontColor=#143642;strokeWidth=3;" parent="tSz3dCy00aF6PcJnhEde-5" vertex="1">
          <mxGeometry y="300" width="160" height="30" as="geometry" />
        </mxCell>
        <mxCell id="tSz3dCy00aF6PcJnhEde-9" value="Ders" style="swimlane;fontStyle=1;childLayout=stackLayout;horizontal=1;startSize=30;horizontalStack=0;resizeParent=1;resizeParentMax=0;resizeLast=0;collapsible=1;marginBottom=0;whiteSpace=wrap;html=1;fillColor=#FAE5C7;strokeColor=#0F8B8D;rounded=0;labelBackgroundColor=none;fontColor=#143642;strokeWidth=3;" parent="1" vertex="1">
          <mxGeometry x="560" y="120" width="160" height="270" as="geometry">
            <mxRectangle x="560" y="120" width="70" height="30" as="alternateBounds" />
          </mxGeometry>
        </mxCell>
        <mxCell id="tSz3dCy00aF6PcJnhEde-10" value="ders_kodu" style="text;strokeColor=none;fillColor=none;align=left;verticalAlign=middle;spacingLeft=4;spacingRight=4;overflow=hidden;points=[[0,0.5],[1,0.5]];portConstraint=eastwest;rotatable=0;whiteSpace=wrap;html=1;fontStyle=1;rounded=0;labelBackgroundColor=none;fontColor=#143642;strokeWidth=3;" parent="tSz3dCy00aF6PcJnhEde-9" vertex="1">
          <mxGeometry y="30" width="160" height="30" as="geometry" />
        </mxCell>
        <mxCell id="tSz3dCy00aF6PcJnhEde-11" value="ders_adi" style="text;strokeColor=none;fillColor=none;align=left;verticalAlign=middle;spacingLeft=4;spacingRight=4;overflow=hidden;points=[[0,0.5],[1,0.5]];portConstraint=eastwest;rotatable=0;whiteSpace=wrap;html=1;fontStyle=1;rounded=0;labelBackgroundColor=none;fontColor=#143642;strokeWidth=3;" parent="tSz3dCy00aF6PcJnhEde-9" vertex="1">
          <mxGeometry y="60" width="160" height="30" as="geometry" />
        </mxCell>
        <mxCell id="tSz3dCy00aF6PcJnhEde-12" value="personel_no" style="text;strokeColor=none;fillColor=none;align=left;verticalAlign=middle;spacingLeft=4;spacingRight=4;overflow=hidden;points=[[0,0.5],[1,0.5]];portConstraint=eastwest;rotatable=0;whiteSpace=wrap;html=1;fontStyle=1;rounded=0;labelBackgroundColor=none;fontColor=#143642;strokeWidth=3;" parent="tSz3dCy00aF6PcJnhEde-9" vertex="1">
          <mxGeometry y="90" width="160" height="30" as="geometry" />
        </mxCell>
        <mxCell id="tSz3dCy00aF6PcJnhEde-37" value="ders_kredi" style="text;strokeColor=none;fillColor=none;align=left;verticalAlign=middle;spacingLeft=4;spacingRight=4;overflow=hidden;points=[[0,0.5],[1,0.5]];portConstraint=eastwest;rotatable=0;whiteSpace=wrap;html=1;fontStyle=1;rounded=0;labelBackgroundColor=none;fontColor=#143642;strokeWidth=3;" parent="tSz3dCy00aF6PcJnhEde-9" vertex="1">
          <mxGeometry y="120" width="160" height="30" as="geometry" />
        </mxCell>
        <mxCell id="yB-rztcEehSW4XwJmEQQ-1" value="haftalik_saat" style="text;strokeColor=none;fillColor=none;align=left;verticalAlign=middle;spacingLeft=4;spacingRight=4;overflow=hidden;points=[[0,0.5],[1,0.5]];portConstraint=eastwest;rotatable=0;whiteSpace=wrap;html=1;fontStyle=1;rounded=0;labelBackgroundColor=none;fontColor=#143642;strokeWidth=3;" parent="tSz3dCy00aF6PcJnhEde-9" vertex="1">
          <mxGeometry y="150" width="160" height="30" as="geometry" />
        </mxCell>
        <mxCell id="tSz3dCy00aF6PcJnhEde-23" value="sinif_kodu" style="text;strokeColor=none;fillColor=none;align=left;verticalAlign=middle;spacingLeft=4;spacingRight=4;overflow=hidden;points=[[0,0.5],[1,0.5]];portConstraint=eastwest;rotatable=0;whiteSpace=wrap;html=1;fontStyle=1;rounded=0;labelBackgroundColor=none;fontColor=#143642;strokeWidth=3;" parent="tSz3dCy00aF6PcJnhEde-9" vertex="1">
          <mxGeometry y="180" width="160" height="30" as="geometry" />
        </mxCell>
        <mxCell id="tSz3dCy00aF6PcJnhEde-34" value="ders_gunu" style="text;strokeColor=none;fillColor=none;align=left;verticalAlign=middle;spacingLeft=4;spacingRight=4;overflow=hidden;points=[[0,0.5],[1,0.5]];portConstraint=eastwest;rotatable=0;whiteSpace=wrap;html=1;fontStyle=1;rounded=0;labelBackgroundColor=none;fontColor=#143642;strokeWidth=3;" parent="tSz3dCy00aF6PcJnhEde-9" vertex="1">
          <mxGeometry y="210" width="160" height="30" as="geometry" />
        </mxCell>
        <mxCell id="tSz3dCy00aF6PcJnhEde-35" value="ders_saati" style="text;strokeColor=none;fillColor=none;align=left;verticalAlign=middle;spacingLeft=4;spacingRight=4;overflow=hidden;points=[[0,0.5],[1,0.5]];portConstraint=eastwest;rotatable=0;whiteSpace=wrap;html=1;fontStyle=1;rounded=0;labelBackgroundColor=none;fontColor=#143642;strokeWidth=3;" parent="tSz3dCy00aF6PcJnhEde-9" vertex="1">
          <mxGeometry y="240" width="160" height="30" as="geometry" />
        </mxCell>
        <mxCell id="tSz3dCy00aF6PcJnhEde-13" value="Devamsizlik" style="swimlane;fontStyle=1;childLayout=stackLayout;horizontal=1;startSize=30;horizontalStack=0;resizeParent=1;resizeParentMax=0;resizeLast=0;collapsible=1;marginBottom=0;whiteSpace=wrap;html=1;fillColor=#FAE5C7;fontColor=#143642;strokeColor=#0F8B8D;rounded=0;labelBackgroundColor=none;strokeWidth=3;" parent="1" vertex="1">
          <mxGeometry x="320" y="440" width="160" height="150" as="geometry" />
        </mxCell>
        <mxCell id="tSz3dCy00aF6PcJnhEde-14" value="devamsizlik_id" style="text;strokeColor=none;fillColor=none;align=left;verticalAlign=middle;spacingLeft=4;spacingRight=4;overflow=hidden;points=[[0,0.5],[1,0.5]];portConstraint=eastwest;rotatable=0;whiteSpace=wrap;html=1;fontStyle=1;rounded=0;labelBackgroundColor=none;fontColor=#143642;strokeWidth=3;" parent="tSz3dCy00aF6PcJnhEde-13" vertex="1">
          <mxGeometry y="30" width="160" height="30" as="geometry" />
        </mxCell>
        <mxCell id="tSz3dCy00aF6PcJnhEde-15" value="ogrenci_no" style="text;strokeColor=none;fillColor=none;align=left;verticalAlign=middle;spacingLeft=4;spacingRight=4;overflow=hidden;points=[[0,0.5],[1,0.5]];portConstraint=eastwest;rotatable=0;whiteSpace=wrap;html=1;fontStyle=1;rounded=0;labelBackgroundColor=none;fontColor=#143642;strokeWidth=3;" parent="tSz3dCy00aF6PcJnhEde-13" vertex="1">
          <mxGeometry y="60" width="160" height="30" as="geometry" />
        </mxCell>
        <mxCell id="tSz3dCy00aF6PcJnhEde-16" value="ders_kodu" style="text;strokeColor=none;fillColor=none;align=left;verticalAlign=middle;spacingLeft=4;spacingRight=4;overflow=hidden;points=[[0,0.5],[1,0.5]];portConstraint=eastwest;rotatable=0;whiteSpace=wrap;html=1;fontStyle=1;rounded=0;labelBackgroundColor=none;fontColor=#143642;strokeWidth=3;" parent="tSz3dCy00aF6PcJnhEde-13" vertex="1">
          <mxGeometry y="90" width="160" height="30" as="geometry" />
        </mxCell>
        <mxCell id="tSz3dCy00aF6PcJnhEde-26" value="devamsizlik_tarihi" style="text;strokeColor=none;fillColor=none;align=left;verticalAlign=middle;spacingLeft=4;spacingRight=4;overflow=hidden;points=[[0,0.5],[1,0.5]];portConstraint=eastwest;rotatable=0;whiteSpace=wrap;html=1;fontStyle=1;rounded=0;labelBackgroundColor=none;fontColor=#143642;strokeWidth=3;" parent="tSz3dCy00aF6PcJnhEde-13" vertex="1">
          <mxGeometry y="120" width="160" height="30" as="geometry" />
        </mxCell>
        <mxCell id="tSz3dCy00aF6PcJnhEde-19" value="Sinif" style="swimlane;fontStyle=1;childLayout=stackLayout;horizontal=1;startSize=30;horizontalStack=0;resizeParent=1;resizeParentMax=0;resizeLast=0;collapsible=1;marginBottom=0;whiteSpace=wrap;html=1;fillColor=#FAE5C7;strokeColor=#0F8B8D;rounded=0;labelBackgroundColor=none;fontColor=#143642;strokeWidth=3;" parent="1" vertex="1">
          <mxGeometry x="560" y="440" width="160" height="120" as="geometry" />
        </mxCell>
        <mxCell id="tSz3dCy00aF6PcJnhEde-20" value="sinif_kodu" style="text;align=left;verticalAlign=middle;spacingLeft=4;spacingRight=4;overflow=hidden;points=[[0,0.5],[1,0.5]];portConstraint=eastwest;rotatable=0;whiteSpace=wrap;html=1;fontStyle=1;rounded=0;labelBackgroundColor=none;fontColor=#143642;strokeWidth=3;" parent="tSz3dCy00aF6PcJnhEde-19" vertex="1">
          <mxGeometry y="30" width="160" height="30" as="geometry" />
        </mxCell>
        <mxCell id="tSz3dCy00aF6PcJnhEde-36" value="sinif_adi" style="text;strokeColor=none;fillColor=none;align=left;verticalAlign=middle;spacingLeft=4;spacingRight=4;overflow=hidden;points=[[0,0.5],[1,0.5]];portConstraint=eastwest;rotatable=0;whiteSpace=wrap;html=1;fontStyle=1;rounded=0;labelBackgroundColor=none;fontColor=#143642;strokeWidth=3;" parent="tSz3dCy00aF6PcJnhEde-19" vertex="1">
          <mxGeometry y="60" width="160" height="30" as="geometry" />
        </mxCell>
        <mxCell id="tSz3dCy00aF6PcJnhEde-21" value="sinif_kapasitesi" style="text;strokeColor=none;fillColor=none;align=left;verticalAlign=middle;spacingLeft=4;spacingRight=4;overflow=hidden;points=[[0,0.5],[1,0.5]];portConstraint=eastwest;rotatable=0;whiteSpace=wrap;html=1;fontStyle=1;rounded=0;labelBackgroundColor=none;fontColor=#143642;strokeWidth=3;" parent="tSz3dCy00aF6PcJnhEde-19" vertex="1">
          <mxGeometry y="90" width="160" height="30" as="geometry" />
        </mxCell>
        <mxCell id="tSz3dCy00aF6PcJnhEde-42" value="Cihaz" style="swimlane;fontStyle=1;childLayout=stackLayout;horizontal=1;startSize=30;horizontalStack=0;resizeParent=1;resizeParentMax=0;resizeLast=0;collapsible=1;marginBottom=0;whiteSpace=wrap;html=1;fillColor=#FAE5C7;strokeColor=#0F8B8D;rounded=0;labelBackgroundColor=none;fontColor=#143642;strokeWidth=3;" parent="1" vertex="1">
          <mxGeometry x="80" y="525" width="160" height="120" as="geometry" />
        </mxCell>
        <mxCell id="tSz3dCy00aF6PcJnhEde-43" value="cihaz_id" style="text;strokeColor=none;fillColor=none;align=left;verticalAlign=middle;spacingLeft=4;spacingRight=4;overflow=hidden;points=[[0,0.5],[1,0.5]];portConstraint=eastwest;rotatable=0;whiteSpace=wrap;html=1;fontStyle=1;rounded=0;labelBackgroundColor=none;fontColor=#143642;strokeWidth=3;" parent="tSz3dCy00aF6PcJnhEde-42" vertex="1">
          <mxGeometry y="30" width="160" height="30" as="geometry" />
        </mxCell>
        <mxCell id="tSz3dCy00aF6PcJnhEde-44" value="sinif_kodu" style="text;strokeColor=none;fillColor=none;align=left;verticalAlign=middle;spacingLeft=4;spacingRight=4;overflow=hidden;points=[[0,0.5],[1,0.5]];portConstraint=eastwest;rotatable=0;whiteSpace=wrap;html=1;fontStyle=1;rounded=0;labelBackgroundColor=none;fontColor=#143642;strokeWidth=3;" parent="tSz3dCy00aF6PcJnhEde-42" vertex="1">
          <mxGeometry y="60" width="160" height="30" as="geometry" />
        </mxCell>
        <mxCell id="tSz3dCy00aF6PcJnhEde-47" value="cihaz_token" style="text;strokeColor=none;fillColor=none;align=left;verticalAlign=middle;spacingLeft=4;spacingRight=4;overflow=hidden;points=[[0,0.5],[1,0.5]];portConstraint=eastwest;rotatable=0;whiteSpace=wrap;html=1;fontStyle=1;rounded=0;labelBackgroundColor=none;fontColor=#143642;strokeWidth=3;" parent="tSz3dCy00aF6PcJnhEde-42" vertex="1">
          <mxGeometry y="90" width="160" height="30" as="geometry" />
        </mxCell>
        <mxCell id="tSz3dCy00aF6PcJnhEde-50" value="DersOgrencileri" style="swimlane;fontStyle=1;childLayout=stackLayout;horizontal=1;startSize=30;horizontalStack=0;resizeParent=1;resizeParentMax=0;resizeLast=0;collapsible=1;marginBottom=0;whiteSpace=wrap;html=1;fillColor=#FAE5C7;strokeColor=#0F8B8D;rounded=0;labelBackgroundColor=none;fontColor=#143642;strokeWidth=3;" parent="1" vertex="1">
          <mxGeometry x="540" y="-30" width="160" height="120" as="geometry" />
        </mxCell>
        <mxCell id="tSz3dCy00aF6PcJnhEde-51" value="id" style="text;strokeColor=none;fillColor=none;align=left;verticalAlign=middle;spacingLeft=4;spacingRight=4;overflow=hidden;points=[[0,0.5],[1,0.5]];portConstraint=eastwest;rotatable=0;whiteSpace=wrap;html=1;fontStyle=1;rounded=0;labelBackgroundColor=none;fontColor=#143642;strokeWidth=3;" parent="tSz3dCy00aF6PcJnhEde-50" vertex="1">
          <mxGeometry y="30" width="160" height="30" as="geometry" />
        </mxCell>
        <mxCell id="tSz3dCy00aF6PcJnhEde-52" value="ders_kodu" style="text;strokeColor=none;fillColor=none;align=left;verticalAlign=middle;spacingLeft=4;spacingRight=4;overflow=hidden;points=[[0,0.5],[1,0.5]];portConstraint=eastwest;rotatable=0;whiteSpace=wrap;html=1;fontStyle=1;rounded=0;labelBackgroundColor=none;fontColor=#143642;strokeWidth=3;" parent="tSz3dCy00aF6PcJnhEde-50" vertex="1">
          <mxGeometry y="60" width="160" height="30" as="geometry" />
        </mxCell>
        <mxCell id="tSz3dCy00aF6PcJnhEde-53" value="ogrenci_no" style="text;strokeColor=none;fillColor=none;align=left;verticalAlign=middle;spacingLeft=4;spacingRight=4;overflow=hidden;points=[[0,0.5],[1,0.5]];portConstraint=eastwest;rotatable=0;whiteSpace=wrap;html=1;fontStyle=1;rounded=0;labelBackgroundColor=none;fontColor=#143642;strokeWidth=3;" parent="tSz3dCy00aF6PcJnhEde-50" vertex="1">
          <mxGeometry y="90" width="160" height="30" as="geometry" />
        </mxCell>
        <mxCell id="tSz3dCy00aF6PcJnhEde-55" style="edgeStyle=orthogonalEdgeStyle;rounded=0;orthogonalLoop=1;jettySize=auto;html=1;entryX=0;entryY=0.5;entryDx=0;entryDy=0;fontStyle=1;labelBackgroundColor=none;strokeColor=#A8201A;fontColor=default;strokeWidth=3;" parent="1" target="tSz3dCy00aF6PcJnhEde-20" edge="1">
          <mxGeometry relative="1" as="geometry">
            <Array as="points">
              <mxPoint x="240" y="610" />
              <mxPoint x="540" y="610" />
              <mxPoint x="540" y="485" />
            </Array>
            <mxPoint x="260" y="610" as="sourcePoint" />
          </mxGeometry>
        </mxCell>
        <mxCell id="tSz3dCy00aF6PcJnhEde-57" style="edgeStyle=orthogonalEdgeStyle;rounded=0;orthogonalLoop=1;jettySize=auto;html=1;exitX=1;exitY=0.5;exitDx=0;exitDy=0;entryX=0;entryY=0.5;entryDx=0;entryDy=0;fontStyle=1;labelBackgroundColor=none;strokeColor=#A8201A;fontColor=default;strokeWidth=3;" parent="1" source="tSz3dCy00aF6PcJnhEde-16" target="tSz3dCy00aF6PcJnhEde-10" edge="1">
          <mxGeometry relative="1" as="geometry">
            <Array as="points">
              <mxPoint x="520" y="545" />
              <mxPoint x="520" y="165" />
            </Array>
          </mxGeometry>
        </mxCell>
        <mxCell id="tSz3dCy00aF6PcJnhEde-58" style="edgeStyle=orthogonalEdgeStyle;rounded=0;orthogonalLoop=1;jettySize=auto;html=1;exitX=1;exitY=0.5;exitDx=0;exitDy=0;entryX=1;entryY=0.5;entryDx=0;entryDy=0;fontStyle=1;labelBackgroundColor=none;strokeColor=#A8201A;fontColor=default;strokeWidth=3;" parent="1" source="tSz3dCy00aF6PcJnhEde-23" target="tSz3dCy00aF6PcJnhEde-20" edge="1">
          <mxGeometry relative="1" as="geometry">
            <Array as="points">
              <mxPoint x="750" y="345" />
              <mxPoint x="750" y="485" />
            </Array>
          </mxGeometry>
        </mxCell>
        <mxCell id="tSz3dCy00aF6PcJnhEde-60" style="edgeStyle=orthogonalEdgeStyle;rounded=0;orthogonalLoop=1;jettySize=auto;html=1;exitX=1;exitY=0.5;exitDx=0;exitDy=0;entryX=1;entryY=0.5;entryDx=0;entryDy=0;fontStyle=1;labelBackgroundColor=none;strokeColor=#A8201A;fontColor=default;strokeWidth=3;" parent="1" source="tSz3dCy00aF6PcJnhEde-52" target="tSz3dCy00aF6PcJnhEde-10" edge="1">
          <mxGeometry relative="1" as="geometry">
            <Array as="points">
              <mxPoint x="750" y="45" />
              <mxPoint x="750" y="165" />
            </Array>
          </mxGeometry>
        </mxCell>
        <mxCell id="tSz3dCy00aF6PcJnhEde-61" style="edgeStyle=orthogonalEdgeStyle;rounded=0;orthogonalLoop=1;jettySize=auto;html=1;exitX=1;exitY=0.5;exitDx=0;exitDy=0;entryX=0;entryY=0.5;entryDx=0;entryDy=0;fontStyle=1;labelBackgroundColor=none;strokeColor=#A8201A;fontColor=default;strokeWidth=3;" parent="1" source="tSz3dCy00aF6PcJnhEde-12" target="tSz3dCy00aF6PcJnhEde-33" edge="1">
          <mxGeometry relative="1" as="geometry">
            <Array as="points">
              <mxPoint x="780" y="225" />
              <mxPoint x="780" y="-50" />
              <mxPoint x="50" y="-50" />
              <mxPoint x="50" y="165" />
            </Array>
          </mxGeometry>
        </mxCell>
        <mxCell id="VWJ288TvoI_qNRsVCnb8-3" style="edgeStyle=orthogonalEdgeStyle;rounded=0;orthogonalLoop=1;jettySize=auto;html=1;exitX=0;exitY=0.5;exitDx=0;exitDy=0;entryX=0;entryY=0.5;entryDx=0;entryDy=0;labelBackgroundColor=none;strokeColor=#A8201A;fontColor=default;strokeWidth=3;" parent="1" source="tSz3dCy00aF6PcJnhEde-15" target="tSz3dCy00aF6PcJnhEde-32" edge="1">
          <mxGeometry relative="1" as="geometry">
            <Array as="points">
              <mxPoint x="290" y="515" />
              <mxPoint x="290" y="135" />
            </Array>
          </mxGeometry>
        </mxCell>
        <mxCell id="VWJ288TvoI_qNRsVCnb8-4" style="edgeStyle=orthogonalEdgeStyle;rounded=0;orthogonalLoop=1;jettySize=auto;html=1;exitX=1;exitY=0.5;exitDx=0;exitDy=0;entryX=0;entryY=0.5;entryDx=0;entryDy=0;labelBackgroundColor=none;strokeColor=#A8201A;fontColor=default;strokeWidth=3;" parent="1" source="tSz3dCy00aF6PcJnhEde-32" target="tSz3dCy00aF6PcJnhEde-53" edge="1">
          <mxGeometry relative="1" as="geometry">
            <Array as="points">
              <mxPoint x="510" y="135" />
              <mxPoint x="510" y="75" />
            </Array>
          </mxGeometry>
        </mxCell>
      </root>
    </mxGraphModel>
  </diagram>
</mxfile>
